# xmcd
# 
# Track frame offsets:
#     150
#     24725
#     43808
# 
# Disc length: 832
# 
# Revision: 0
# Processed by: cddbd v1.5.2PL0 Copyright (c) Steve Scherf et al.
# Submitted via: BonkEnc v1.0.8
# 
DISCID=21033e03
DTITLE=アンコニュ - 運命
DYEAR=2001
DGENRE=JPop
TTITLE0=運命
TTITLE1=そら
TTITLE2=新しい朝
EXTD=YEAR: 2001
EXTT0=
EXTT1=
EXTT2=
PLAYORDER=
